<svg width="97" height="38" viewBox="0 0 97 38" fill="none" xmlns="http://www.w3.org/2000/svg">
<path d="M35.4766 12.1875H38.0078C37.9661 12.9688 37.7526 13.6589 37.3672 14.2578C36.987 14.8516 36.4583 15.3177 35.7812 15.6562C35.1042 15.9896 34.2995 16.1562 33.3672 16.1562C32.6224 16.1562 31.9557 16.0286 31.3672 15.7734C30.7786 15.5182 30.2786 15.1536 29.8672 14.6797C29.4609 14.2005 29.1484 13.625 28.9297 12.9531C28.7161 12.276 28.6094 11.513 28.6094 10.6641V9.96875C28.6094 9.11979 28.7214 8.35677 28.9453 7.67969C29.1693 7.0026 29.4896 6.42448 29.9062 5.94531C30.3229 5.46615 30.8229 5.09896 31.4062 4.84375C31.9896 4.58854 32.6406 4.46094 33.3594 4.46094C34.3281 4.46094 35.1458 4.63542 35.8125 4.98438C36.4792 5.33333 36.9948 5.8125 37.3594 6.42188C37.7292 7.03125 37.9505 7.72656 38.0234 8.50781H35.4844C35.4635 8.0651 35.3802 7.69271 35.2344 7.39062C35.0885 7.08333 34.8646 6.85156 34.5625 6.69531C34.2604 6.53906 33.8594 6.46094 33.3594 6.46094C32.9948 6.46094 32.6745 6.52865 32.3984 6.66406C32.1276 6.79948 31.901 7.01042 31.7188 7.29688C31.5417 7.58333 31.4089 7.94792 31.3203 8.39062C31.2318 8.82812 31.1875 9.34896 31.1875 9.95312V10.6641C31.1875 11.263 31.2266 11.7812 31.3047 12.2188C31.3828 12.6562 31.5078 13.0182 31.6797 13.3047C31.8568 13.5911 32.0833 13.8047 32.3594 13.9453C32.6354 14.0859 32.9714 14.1562 33.3672 14.1562C33.8203 14.1562 34.1979 14.0859 34.5 13.9453C34.8021 13.7995 35.0339 13.5807 35.1953 13.2891C35.3568 12.9974 35.4505 12.6302 35.4766 12.1875ZM38.9453 11.8594V11.6953C38.9453 11.0755 39.0339 10.5052 39.2109 9.98438C39.388 9.45833 39.6484 9.0026 39.9922 8.61719C40.3359 8.23177 40.7578 7.93229 41.2578 7.71875C41.7578 7.5 42.3307 7.39062 42.9766 7.39062C43.6328 7.39062 44.2109 7.5 44.7109 7.71875C45.2161 7.93229 45.6406 8.23177 45.9844 8.61719C46.3281 9.0026 46.5885 9.45833 46.7656 9.98438C46.9427 10.5052 47.0312 11.0755 47.0312 11.6953V11.8594C47.0312 12.474 46.9427 13.0443 46.7656 13.5703C46.5885 14.0911 46.3281 14.5469 45.9844 14.9375C45.6406 15.3229 45.2188 15.6224 44.7188 15.8359C44.2188 16.0495 43.6432 16.1562 42.9922 16.1562C42.3464 16.1562 41.7708 16.0495 41.2656 15.8359C40.7604 15.6224 40.3359 15.3229 39.9922 14.9375C39.6484 14.5469 39.388 14.0911 39.2109 13.5703C39.0339 13.0443 38.9453 12.474 38.9453 11.8594ZM41.3906 11.6953V11.8594C41.3906 12.1927 41.4167 12.5052 41.4688 12.7969C41.526 13.0885 41.6172 13.3438 41.7422 13.5625C41.8672 13.7812 42.0312 13.9531 42.2344 14.0781C42.4427 14.1979 42.6953 14.2578 42.9922 14.2578C43.2891 14.2578 43.5391 14.1979 43.7422 14.0781C43.9453 13.9531 44.1094 13.7812 44.2344 13.5625C44.3594 13.3438 44.4479 13.0885 44.5 12.7969C44.5573 12.5052 44.5859 12.1927 44.5859 11.8594V11.6953C44.5859 11.3672 44.5573 11.0599 44.5 10.7734C44.4479 10.4818 44.3594 10.224 44.2344 10C44.1094 9.77604 43.9427 9.60156 43.7344 9.47656C43.5312 9.35156 43.2786 9.28906 42.9766 9.28906C42.6849 9.28906 42.4375 9.35156 42.2344 9.47656C42.0312 9.60156 41.8672 9.77604 41.7422 10C41.6172 10.224 41.526 10.4818 41.4688 10.7734C41.4167 11.0599 41.3906 11.3672 41.3906 11.6953ZM51.3516 16H48.8984V6.82812C48.8984 6.17708 49.026 5.63021 49.2812 5.1875C49.5417 4.74479 49.9089 4.40885 50.3828 4.17969C50.8568 3.95052 51.4167 3.83594 52.0625 3.83594C52.2865 3.83594 52.4948 3.85156 52.6875 3.88281C52.8854 3.90885 53.0781 3.94531 53.2656 3.99219V5.8125C53.1667 5.78646 53.0651 5.76823 52.9609 5.75781C52.8568 5.7474 52.7318 5.74219 52.5859 5.74219C52.3255 5.74219 52.1016 5.78385 51.9141 5.86719C51.7318 5.94531 51.5911 6.06771 51.4922 6.23438C51.3984 6.39583 51.3516 6.59375 51.3516 6.82812V16ZM53.0234 7.54688V9.25781H47.6641V7.54688H53.0234ZM57.1172 16H54.6641V6.82812C54.6641 6.17708 54.7917 5.63021 55.0469 5.1875C55.3073 4.74479 55.6745 4.40885 56.1484 4.17969C56.6224 3.95052 57.1823 3.83594 57.8281 3.83594C58.0521 3.83594 58.2604 3.85156 58.4531 3.88281C58.651 3.90885 58.8438 3.94531 59.0312 3.99219V5.8125C58.9323 5.78646 58.8307 5.76823 58.7266 5.75781C58.6224 5.7474 58.4974 5.74219 58.3516 5.74219C58.0911 5.74219 57.8672 5.78385 57.6797 5.86719C57.4974 5.94531 57.3568 6.06771 57.2578 6.23438C57.1641 6.39583 57.1172 6.59375 57.1172 6.82812V16ZM58.7891 7.54688V9.25781H53.4297V7.54688H58.7891ZM63.6406 16.1562C62.9688 16.1562 62.3672 16.0495 61.8359 15.8359C61.3047 15.6224 60.8542 15.3281 60.4844 14.9531C60.1198 14.5729 59.8411 14.1354 59.6484 13.6406C59.4557 13.1458 59.3594 12.6172 59.3594 12.0547V11.7578C59.3594 11.1276 59.4479 10.5469 59.625 10.0156C59.8021 9.48438 60.0599 9.02344 60.3984 8.63281C60.7422 8.23698 61.1641 7.93229 61.6641 7.71875C62.1641 7.5 62.7344 7.39062 63.375 7.39062C63.974 7.39062 64.5078 7.48958 64.9766 7.6875C65.4453 7.88021 65.8411 8.15885 66.1641 8.52344C66.487 8.88281 66.7318 9.31771 66.8984 9.82812C67.0703 10.3333 67.1562 10.901 67.1562 11.5312V12.5312H60.3438V10.9609H64.7656V10.7734C64.7656 10.4766 64.7109 10.2161 64.6016 9.99219C64.4974 9.76823 64.3411 9.59635 64.1328 9.47656C63.9297 9.35156 63.6719 9.28906 63.3594 9.28906C63.0625 9.28906 62.8151 9.35156 62.6172 9.47656C62.4193 9.60156 62.2604 9.77865 62.1406 10.0078C62.026 10.2318 61.9427 10.4948 61.8906 10.7969C61.8385 11.0938 61.8125 11.4141 61.8125 11.7578V12.0547C61.8125 12.3828 61.8568 12.6823 61.9453 12.9531C62.0339 13.224 62.1641 13.4557 62.3359 13.6484C62.5078 13.8411 62.7161 13.9922 62.9609 14.1016C63.2057 14.2109 63.4844 14.2656 63.7969 14.2656C64.1823 14.2656 64.5495 14.1927 64.8984 14.0469C65.2474 13.8958 65.5495 13.6615 65.8047 13.3438L66.9453 14.6484C66.7734 14.8984 66.5312 15.1406 66.2188 15.375C65.9115 15.6042 65.5417 15.7917 65.1094 15.9375C64.6771 16.0833 64.1875 16.1562 63.6406 16.1562ZM72.3281 16.1562C71.6562 16.1562 71.0547 16.0495 70.5234 15.8359C69.9922 15.6224 69.5417 15.3281 69.1719 14.9531C68.8073 14.5729 68.5286 14.1354 68.3359 13.6406C68.1432 13.1458 68.0469 12.6172 68.0469 12.0547V11.7578C68.0469 11.1276 68.1354 10.5469 68.3125 10.0156C68.4896 9.48438 68.7474 9.02344 69.0859 8.63281C69.4297 8.23698 69.8516 7.93229 70.3516 7.71875C70.8516 7.5 71.4219 7.39062 72.0625 7.39062C72.6615 7.39062 73.1953 7.48958 73.6641 7.6875C74.1328 7.88021 74.5286 8.15885 74.8516 8.52344C75.1745 8.88281 75.4193 9.31771 75.5859 9.82812C75.7578 10.3333 75.8438 10.901 75.8438 11.5312V12.5312H69.0312V10.9609H73.4531V10.7734C73.4531 10.4766 73.3984 10.2161 73.2891 9.99219C73.1849 9.76823 73.0286 9.59635 72.8203 9.47656C72.6172 9.35156 72.3594 9.28906 72.0469 9.28906C71.75 9.28906 71.5026 9.35156 71.3047 9.47656C71.1068 9.60156 70.9479 9.77865 70.8281 10.0078C70.7135 10.2318 70.6302 10.4948 70.5781 10.7969C70.526 11.0938 70.5 11.4141 70.5 11.7578V12.0547C70.5 12.3828 70.5443 12.6823 70.6328 12.9531C70.7214 13.224 70.8516 13.4557 71.0234 13.6484C71.1953 13.8411 71.4036 13.9922 71.6484 14.1016C71.8932 14.2109 72.1719 14.2656 72.4844 14.2656C72.8698 14.2656 73.237 14.1927 73.5859 14.0469C73.9349 13.8958 74.237 13.6615 74.4922 13.3438L75.6328 14.6484C75.4609 14.8984 75.2188 15.1406 74.9062 15.375C74.599 15.6042 74.2292 15.7917 73.7969 15.9375C73.3646 16.0833 72.875 16.1562 72.3281 16.1562ZM32.3984 32H30.0234L30.0391 30.7734H32.3984C33.2109 30.7734 33.888 30.6042 34.4297 30.2656C34.9714 29.9219 35.3776 29.4427 35.6484 28.8281C35.9245 28.2083 36.0625 27.4844 36.0625 26.6562V25.9609C36.0625 25.3099 35.9844 24.7318 35.8281 24.2266C35.6719 23.7161 35.4427 23.2865 35.1406 22.9375C34.8385 22.5833 34.4688 22.3151 34.0312 22.1328C33.599 21.9505 33.1016 21.8594 32.5391 21.8594H29.9766V20.625H32.5391C33.2839 20.625 33.9635 20.75 34.5781 21C35.1927 21.2448 35.7214 21.6016 36.1641 22.0703C36.612 22.5339 36.9557 23.0964 37.1953 23.7578C37.4349 24.4141 37.5547 25.1536 37.5547 25.9766V26.6562C37.5547 27.4792 37.4349 28.2214 37.1953 28.8828C36.9557 29.5391 36.6094 30.099 36.1562 30.5625C35.7083 31.026 35.1667 31.3828 34.5312 31.6328C33.901 31.8776 33.1901 32 32.3984 32ZM30.8281 20.625V32H29.3203V20.625H30.8281ZM43.1094 32.1562C42.5208 32.1562 41.987 32.0573 41.5078 31.8594C41.0339 31.6562 40.625 31.3724 40.2812 31.0078C39.9427 30.6432 39.6823 30.2109 39.5 29.7109C39.3177 29.2109 39.2266 28.6641 39.2266 28.0703V27.7422C39.2266 27.0547 39.3281 26.4427 39.5312 25.9062C39.7344 25.3646 40.0104 24.9062 40.3594 24.5312C40.7083 24.1562 41.1042 23.8724 41.5469 23.6797C41.9896 23.487 42.4479 23.3906 42.9219 23.3906C43.526 23.3906 44.0469 23.4948 44.4844 23.7031C44.9271 23.9115 45.2891 24.2031 45.5703 24.5781C45.8516 24.9479 46.0599 25.3854 46.1953 25.8906C46.3307 26.3906 46.3984 26.9375 46.3984 27.5312V28.1797H40.0859V27H44.9531V26.8906C44.9323 26.5156 44.8542 26.151 44.7188 25.7969C44.5885 25.4427 44.3802 25.151 44.0938 24.9219C43.8073 24.6927 43.4167 24.5781 42.9219 24.5781C42.5938 24.5781 42.2917 24.6484 42.0156 24.7891C41.7396 24.9245 41.5026 25.1276 41.3047 25.3984C41.1068 25.6693 40.9531 26 40.8438 26.3906C40.7344 26.7812 40.6797 27.2318 40.6797 27.7422V28.0703C40.6797 28.4714 40.7344 28.849 40.8438 29.2031C40.9583 29.5521 41.1224 29.8594 41.3359 30.125C41.5547 30.3906 41.8177 30.599 42.125 30.75C42.4375 30.901 42.7917 30.9766 43.1875 30.9766C43.6979 30.9766 44.1302 30.8724 44.4844 30.6641C44.8385 30.4557 45.1484 30.1771 45.4141 29.8281L46.2891 30.5234C46.1068 30.7995 45.875 31.0625 45.5938 31.3125C45.3125 31.5625 44.9661 31.7656 44.5547 31.9219C44.1484 32.0781 43.6667 32.1562 43.1094 32.1562ZM50.5469 30.6953L52.8594 23.5469H54.3359L51.2969 32H50.3281L50.5469 30.6953ZM48.6172 23.5469L51 30.7344L51.1641 32H50.1953L47.1328 23.5469H48.6172ZM62.8438 30.7734V32H57.1562V30.7734H62.8438ZM57.4531 20.625V32H55.9453V20.625H57.4531ZM65.9219 23.5469V32H64.4688V23.5469H65.9219ZM64.3594 21.3047C64.3594 21.0703 64.4297 20.8724 64.5703 20.7109C64.7161 20.5495 64.9297 20.4688 65.2109 20.4688C65.487 20.4688 65.6979 20.5495 65.8438 20.7109C65.9948 20.8724 66.0703 21.0703 66.0703 21.3047C66.0703 21.5286 65.9948 21.7214 65.8438 21.8828C65.6979 22.0391 65.487 22.1172 65.2109 22.1172C64.9297 22.1172 64.7161 22.0391 64.5703 21.8828C64.4297 21.7214 64.3594 21.5286 64.3594 21.3047ZM70.8125 30.6953L73.125 23.5469H74.6016L71.5625 32H70.5938L70.8125 30.6953ZM68.8828 23.5469L71.2656 30.7344L71.4297 32H70.4609L67.3984 23.5469H68.8828ZM79.3906 32.1562C78.8021 32.1562 78.2682 32.0573 77.7891 31.8594C77.3151 31.6562 76.9062 31.3724 76.5625 31.0078C76.224 30.6432 75.9635 30.2109 75.7812 29.7109C75.599 29.2109 75.5078 28.6641 75.5078 28.0703V27.7422C75.5078 27.0547 75.6094 26.4427 75.8125 25.9062C76.0156 25.3646 76.2917 24.9062 76.6406 24.5312C76.9896 24.1562 77.3854 23.8724 77.8281 23.6797C78.2708 23.487 78.7292 23.3906 79.2031 23.3906C79.8073 23.3906 80.3281 23.4948 80.7656 23.7031C81.2083 23.9115 81.5703 24.2031 81.8516 24.5781C82.1328 24.9479 82.3411 25.3854 82.4766 25.8906C82.612 26.3906 82.6797 26.9375 82.6797 27.5312V28.1797H76.3672V27H81.2344V26.8906C81.2135 26.5156 81.1354 26.151 81 25.7969C80.8698 25.4427 80.6615 25.151 80.375 24.9219C80.0885 24.6927 79.6979 24.5781 79.2031 24.5781C78.875 24.5781 78.5729 24.6484 78.2969 24.7891C78.0208 24.9245 77.7839 25.1276 77.5859 25.3984C77.388 25.6693 77.2344 26 77.125 26.3906C77.0156 26.7812 76.9609 27.2318 76.9609 27.7422V28.0703C76.9609 28.4714 77.0156 28.849 77.125 29.2031C77.2396 29.5521 77.4036 29.8594 77.6172 30.125C77.8359 30.3906 78.099 30.599 78.4062 30.75C78.7188 30.901 79.0729 30.9766 79.4688 30.9766C79.9792 30.9766 80.4115 30.8724 80.7656 30.6641C81.1198 30.4557 81.4297 30.1771 81.6953 29.8281L82.5703 30.5234C82.388 30.7995 82.1562 31.0625 81.875 31.3125C81.5938 31.5625 81.2474 31.7656 80.8359 31.9219C80.4297 32.0781 79.9479 32.1562 79.3906 32.1562ZM85.8125 24.875V32H84.3672V23.5469H85.7734L85.8125 24.875ZM88.4531 23.5L88.4453 24.8438C88.3255 24.8177 88.2109 24.8021 88.1016 24.7969C87.9974 24.7865 87.8776 24.7812 87.7422 24.7812C87.4089 24.7812 87.1146 24.8333 86.8594 24.9375C86.6042 25.0417 86.388 25.1875 86.2109 25.375C86.0339 25.5625 85.8932 25.7865 85.7891 26.0469C85.6901 26.3021 85.625 26.5833 85.5938 26.8906L85.1875 27.125C85.1875 26.6146 85.237 26.1354 85.3359 25.6875C85.4401 25.2396 85.599 24.8438 85.8125 24.5C86.026 24.151 86.2969 23.8802 86.625 23.6875C86.9583 23.4896 87.3542 23.3906 87.8125 23.3906C87.9167 23.3906 88.0365 23.4036 88.1719 23.4297C88.3073 23.4505 88.401 23.474 88.4531 23.5ZM92.3047 31.125L94.6562 23.5469H96.2031L92.8125 33.3047C92.7344 33.513 92.6302 33.737 92.5 33.9766C92.375 34.2214 92.2135 34.4531 92.0156 34.6719C91.8177 34.8906 91.5781 35.0677 91.2969 35.2031C91.0208 35.3438 90.6901 35.4141 90.3047 35.4141C90.1901 35.4141 90.0443 35.3984 89.8672 35.3672C89.6901 35.3359 89.5651 35.3099 89.4922 35.2891L89.4844 34.1172C89.526 34.1224 89.5911 34.1276 89.6797 34.1328C89.7734 34.1432 89.8385 34.1484 89.875 34.1484C90.2031 34.1484 90.4818 34.1042 90.7109 34.0156C90.9401 33.9323 91.1328 33.7891 91.2891 33.5859C91.4505 33.388 91.5885 33.1146 91.7031 32.7656L92.3047 31.125ZM90.5781 23.5469L92.7734 30.1094L93.1484 31.6328L92.1094 32.1641L89 23.5469H90.5781Z" fill="#272221"/>
<path d="M24.2175 4.10239C23.8932 3.60575 23.4194 3.59149 22.8795 3.57523C22.8183 3.57339 22.7563 3.57153 22.6936 3.56893C22.6458 3.56673 22.5931 3.56758 22.538 3.56846C22.319 3.57198 22.0629 3.57609 21.9339 3.39212C21.7843 3.17883 21.7985 2.76663 21.8102 2.42635C21.8139 2.31882 21.8173 2.21841 21.8153 2.1338C21.7943 1.34332 21.7504 0.503628 21.4453 0.22292C21.2152 0.0123098 20.5268 0.041487 19.892 0.0683954C19.6862 0.0771184 19.486 0.085603 19.3089 0.085603H5.79596C5.52389 0.085603 5.23869 0.0634489 4.95847 0.0416813C4.41245 -0.000733808 3.88533 -0.0416812 3.511 0.085603C2.96775 0.271231 2.93096 1.24667 2.89633 2.16519L2.89446 2.21461C2.86538 2.97288 2.67746 3.55799 2.05465 3.49906C1.33029 3.43161 0.609497 3.41035 0.281987 4.06594C-0.10481 4.84161 -0.0250374 5.65358 0.117847 7.10792C0.138258 7.31567 0.159956 7.53652 0.181766 7.77225H24.4264C24.4403 7.59995 24.455 7.42986 24.4696 7.26253C24.5831 5.95406 24.682 4.81402 24.2175 4.10239Z" fill="#C47F17"/>
<path fill-rule="evenodd" clip-rule="evenodd" d="M2.06987 9.21467C2.44852 14.3395 2.82304 19.4701 3.19757 24.6009L3.1978 24.604C3.40115 27.3898 3.60451 30.1757 3.80853 32.9606H4.58212C4.63483 33.3965 4.69515 33.9347 4.75874 34.5021C4.88783 35.6539 5.03044 36.9264 5.15034 37.7083H5.2359C6.02387 37.42 11.4712 35.0916 11.4736 25.8218C11.4726 25.7954 11.4735 25.7689 11.4762 25.7427H10.1304C10.0653 25.7421 10.0021 25.7203 9.9507 25.6808C9.89927 25.6413 9.86241 25.5861 9.84577 25.5238C9.71463 25.1999 9.60888 24.8664 9.52948 24.5264C8.73777 24.9736 8.10906 25.6564 7.73296 26.4775C7.37594 25.6365 7.32921 24.6983 7.60093 23.8267C7.87266 22.9551 8.44556 22.2057 9.21952 21.7093C9.22949 19.0043 10.2423 16.3968 12.0661 14.3804L12.0946 14.3553C12.1476 14.3095 12.2155 14.284 12.2859 14.2834C12.3266 14.2838 12.3668 14.2925 12.4039 14.309C12.4415 14.3257 12.4751 14.35 12.5026 14.3804C14.3478 16.3996 15.3552 19.0321 15.3239 21.7531C16.1123 22.2356 16.6969 22.9845 16.9691 23.8608C17.2413 24.7371 17.1827 25.6813 16.8042 26.5181C16.4301 25.6957 15.8008 25.0123 15.0076 24.5671C14.9592 24.8966 14.8699 25.219 14.7419 25.527C14.6977 25.6583 14.6091 25.7427 14.5205 25.7427H13.0853C13.0876 25.7584 13.0892 25.7742 13.0901 25.7901L13.0907 25.7937V25.8014C13.0912 25.815 13.0912 25.8287 13.0907 25.8424C13.1104 35.3783 18.902 37.5428 19.3902 37.7083H19.5572C19.5998 36.9572 19.7386 35.9208 19.8739 34.9104C19.9671 34.2142 20.0587 33.5302 20.116 32.9606H20.8985C21.149 29.4527 21.4066 25.9546 21.6642 22.4564L21.6644 22.4545L21.6645 22.4535C21.994 17.9789 22.3235 13.5042 22.6381 9.0087H2.11998C2.06092 9.02024 2.06495 9.11685 2.06987 9.21467ZM12.2859 14.2834L12.2844 14.2834H12.2875L12.2859 14.2834Z" fill="#C47F17"/>
</svg>
